<svg width="54" height="59" viewBox="0 0 54 59" fill="none" xmlns="http://www.w3.org/2000/svg">
<path d="M4.9 52.552H1.92L1.38 54.082H0.16L2.76 47.132H4.07L6.66 54.082H5.44L4.9 52.552ZM4.58 51.672L3.41 48.372L2.24 51.672H4.58ZM10.9664 48.502C11.4464 48.502 11.8731 48.6154 12.2464 48.842C12.6264 49.0687 12.9231 49.3954 13.1364 49.822C13.3497 50.2487 13.4564 50.7487 13.4564 51.322C13.4564 51.902 13.3497 52.4054 13.1364 52.832C12.9231 53.2587 12.6264 53.5854 12.2464 53.812C11.8731 54.0387 11.4464 54.152 10.9664 54.152C10.4664 54.152 10.0397 54.0287 9.68641 53.782C9.33307 53.5354 9.08641 53.2087 8.94641 52.802V56.702H7.80641V48.572H8.94641V49.852C9.08641 49.4454 9.33307 49.1187 9.68641 48.872C10.0397 48.6254 10.4664 48.502 10.9664 48.502ZM10.6164 49.502C10.2964 49.502 10.0097 49.5787 9.75641 49.732C9.50307 49.8787 9.30307 50.092 9.15641 50.372C9.00974 50.6454 8.93641 50.962 8.93641 51.322C8.93641 51.6887 9.00974 52.0087 9.15641 52.282C9.30307 52.5554 9.50307 52.7687 9.75641 52.922C10.0097 53.0687 10.2964 53.142 10.6164 53.142C11.1231 53.142 11.5297 52.982 11.8364 52.662C12.1431 52.3354 12.2964 51.8887 12.2964 51.322C12.2964 50.762 12.1431 50.3187 11.8364 49.992C11.5297 49.6654 11.1231 49.502 10.6164 49.502ZM18.0145 48.502C18.4945 48.502 18.9211 48.6154 19.2945 48.842C19.6745 49.0687 19.9711 49.3954 20.1845 49.822C20.3978 50.2487 20.5045 50.7487 20.5045 51.322C20.5045 51.902 20.3978 52.4054 20.1845 52.832C19.9711 53.2587 19.6745 53.5854 19.2945 53.812C18.9211 54.0387 18.4945 54.152 18.0145 54.152C17.5145 54.152 17.0878 54.0287 16.7345 53.782C16.3811 53.5354 16.1345 53.2087 15.9945 52.802V56.702H14.8545V48.572H15.9945V49.852C16.1345 49.4454 16.3811 49.1187 16.7345 48.872C17.0878 48.6254 17.5145 48.502 18.0145 48.502ZM17.6645 49.502C17.3445 49.502 17.0578 49.5787 16.8045 49.732C16.5511 49.8787 16.3511 50.092 16.2045 50.372C16.0578 50.6454 15.9845 50.962 15.9845 51.322C15.9845 51.6887 16.0578 52.0087 16.2045 52.282C16.3511 52.5554 16.5511 52.7687 16.8045 52.922C17.0578 53.0687 17.3445 53.142 17.6645 53.142C18.1711 53.142 18.5778 52.982 18.8845 52.662C19.1911 52.3354 19.3445 51.8887 19.3445 51.322C19.3445 50.762 19.1911 50.3187 18.8845 49.992C18.5778 49.6654 18.1711 49.502 17.6645 49.502ZM23.0425 46.682V54.082H21.9025V46.682H23.0425ZM29.842 51.062C29.842 51.2487 29.8287 51.412 29.802 51.552H25.562C25.582 52.1187 25.7387 52.5387 26.032 52.812C26.3254 53.0854 26.6887 53.222 27.122 53.222C27.502 53.222 27.822 53.1254 28.082 52.932C28.3487 52.7387 28.512 52.482 28.572 52.162H29.792C29.7187 52.5487 29.5654 52.892 29.332 53.192C29.0987 53.492 28.7954 53.7287 28.422 53.902C28.0487 54.0687 27.632 54.152 27.172 54.152C26.6387 54.152 26.1654 54.0387 25.752 53.812C25.3454 53.5854 25.0254 53.2587 24.792 52.832C24.5587 52.4054 24.442 51.902 24.442 51.322C24.442 50.7487 24.5587 50.2487 24.792 49.822C25.0254 49.3954 25.3454 49.0687 25.752 48.842C26.1654 48.6154 26.6387 48.502 27.172 48.502C27.712 48.502 28.182 48.6154 28.582 48.842C28.9887 49.062 29.2987 49.3687 29.512 49.762C29.732 50.1487 29.842 50.582 29.842 51.062ZM28.692 51.032C28.7054 50.672 28.642 50.372 28.502 50.132C28.3687 49.8854 28.182 49.7054 27.942 49.592C27.7087 49.472 27.452 49.412 27.172 49.412C26.7254 49.412 26.352 49.5487 26.052 49.822C25.752 50.0954 25.5887 50.4987 25.562 51.032H28.692ZM37.0465 48.502C37.5265 48.502 37.9532 48.6154 38.3265 48.842C38.7065 49.0687 39.0032 49.3954 39.2165 49.822C39.4298 50.2487 39.5365 50.7487 39.5365 51.322C39.5365 51.902 39.4298 52.4054 39.2165 52.832C39.0032 53.2587 38.7065 53.5854 38.3265 53.812C37.9532 54.0387 37.5265 54.152 37.0465 54.152C36.5465 54.152 36.1198 54.0287 35.7665 53.782C35.4132 53.5354 35.1665 53.2087 35.0265 52.802V56.702H33.8865V48.572H35.0265V49.852C35.1665 49.4454 35.4132 49.1187 35.7665 48.872C36.1198 48.6254 36.5465 48.502 37.0465 48.502ZM36.6965 49.502C36.3765 49.502 36.0898 49.5787 35.8365 49.732C35.5832 49.8787 35.3832 50.092 35.2365 50.372C35.0898 50.6454 35.0165 50.962 35.0165 51.322C35.0165 51.6887 35.0898 52.0087 35.2365 52.282C35.3832 52.5554 35.5832 52.7687 35.8365 52.922C36.0898 53.0687 36.3765 53.142 36.6965 53.142C37.2032 53.142 37.6098 52.982 37.9165 52.662C38.2232 52.3354 38.3765 51.8887 38.3765 51.322C38.3765 50.762 38.2232 50.3187 37.9165 49.992C37.6098 49.6654 37.2032 49.502 36.6965 49.502ZM43.1445 48.502C43.6445 48.502 44.0712 48.6254 44.4245 48.872C44.7779 49.1187 45.0279 49.4454 45.1745 49.852V48.572H46.3145V54.082H45.1745V52.802C45.0279 53.2087 44.7779 53.5354 44.4245 53.782C44.0712 54.0287 43.6445 54.152 43.1445 54.152C42.6645 54.152 42.2345 54.0387 41.8545 53.812C41.4812 53.5854 41.1879 53.2587 40.9745 52.832C40.7612 52.4054 40.6545 51.902 40.6545 51.322C40.6545 50.7487 40.7612 50.2487 40.9745 49.822C41.1879 49.3954 41.4812 49.0687 41.8545 48.842C42.2345 48.6154 42.6645 48.502 43.1445 48.502ZM43.4945 49.502C42.9879 49.502 42.5812 49.6654 42.2745 49.992C41.9745 50.312 41.8245 50.7554 41.8245 51.322C41.8245 51.8887 41.9745 52.3354 42.2745 52.662C42.5812 52.982 42.9879 53.142 43.4945 53.142C43.8145 53.142 44.1012 53.0687 44.3545 52.922C44.6079 52.7687 44.8079 52.5554 44.9545 52.282C45.1012 52.0087 45.1745 51.6887 45.1745 51.322C45.1745 50.962 45.1012 50.6454 44.9545 50.372C44.8079 50.092 44.6079 49.8787 44.3545 49.732C44.1012 49.5787 43.8145 49.502 43.4945 49.502ZM48.6326 48.572L50.2826 52.622L51.8126 48.572H53.0826L49.7526 56.702H48.4826L49.6726 53.952L47.3526 48.572H48.6326Z" fill="#868889"/>
<path d="M23.3127 26.7675C19.3289 26.7445 16.0336 18.6123 16.0336 14.4707C16.0336 7.70548 21.1087 6.2244 23.0646 6.2244C23.946 6.2244 24.8872 6.57054 25.7174 6.87685C26.2979 7.09052 26.8983 7.31108 27.2322 7.31108C27.4321 7.31108 27.903 7.12345 28.3189 6.95882C29.2057 6.60578 30.3092 6.16699 31.5943 6.16699C31.5966 6.16699 31.5997 6.16699 31.6019 6.16699C32.5614 6.16699 35.4708 6.37758 37.22 9.00433L37.6297 9.62003L37.04 10.065C36.1976 10.7006 34.6606 11.8601 34.6606 14.1568C34.6606 16.8769 36.4013 17.9231 37.2376 18.4262C37.6067 18.6483 37.9888 18.8773 37.9888 19.3781C37.9888 19.7051 35.3789 26.7269 31.5889 26.7269C30.6615 26.7269 30.006 26.4481 29.4277 26.2023C28.8427 25.9534 28.338 25.739 27.504 25.739C27.0813 25.739 26.5467 25.9389 25.9808 26.151C25.2074 26.4397 24.332 26.7675 23.3388 26.7675H23.3127Z" fill="#868889"/>
<path d="M31.9958 0C32.0945 3.55901 29.5492 6.02808 27.007 5.87323C26.588 3.03302 29.5489 0 31.9958 0Z" fill="#868889"/>
</svg>
