<svg width="26" height="18" viewBox="0 0 26 18" fill="none" xmlns="http://www.w3.org/2000/svg">
<path d="M23.2935 0H2.70852C1.21559 0 0 1.21559 0 2.70858V14.6262C0 16.1191 1.21559 17.3347 2.70852 17.3347H23.2934C24.7863 17.3347 26.0019 16.1191 26.0019 14.6262V2.70858C26.002 1.21559 24.7864 0 23.2935 0ZM24.9186 14.6261C24.9186 15.5221 24.1895 16.2512 23.2935 16.2512H2.70852C1.81252 16.2512 1.0834 15.5221 1.0834 14.6261V2.70858C1.0834 1.81257 1.81252 1.08345 2.70852 1.08345H23.2934C24.1894 1.08345 24.9185 1.81257 24.9185 2.70858V14.6261H24.9186Z" fill="#868889"/>
<path d="M25.4609 3.25049H0.542335C0.243313 3.25049 0.000610352 3.49319 0.000610352 3.79221V7.04246C0.000610352 7.34149 0.243313 7.58419 0.542335 7.58419H25.4609C25.76 7.58419 26.0027 7.34149 26.0027 7.04246V3.79221C26.0026 3.49319 25.7599 3.25049 25.4609 3.25049ZM24.9192 6.50074H1.08401V4.33389H24.9192V6.50074H24.9192Z" fill="#868889"/>
<path d="M10.2931 10.8345H3.79258C3.49356 10.8345 3.25085 11.0772 3.25085 11.3762C3.25085 11.6752 3.49356 11.9179 3.79258 11.9179H10.2931C10.5921 11.9179 10.8348 11.6752 10.8348 11.3761C10.8348 11.0771 10.5921 10.8345 10.2931 10.8345Z" fill="#868889"/>
<path d="M10.2931 13.0015H3.79258C3.49356 13.0015 3.25085 13.2442 3.25085 13.5432C3.25085 13.8422 3.49356 14.0849 3.79258 14.0849H10.2931C10.5921 14.0849 10.8348 13.8422 10.8348 13.5432C10.8348 13.2442 10.5921 13.0015 10.2931 13.0015Z" fill="#868889"/>
<path d="M21.127 9.75098H20.0436C19.1476 9.75098 18.4185 10.4801 18.4185 11.3761V12.4595C18.4185 13.3555 19.1476 14.0846 20.0436 14.0846H21.127C22.023 14.0846 22.7521 13.3555 22.7521 12.4595V11.3761C22.7521 10.4801 22.023 9.75098 21.127 9.75098ZM21.6687 12.4596C21.6687 12.7586 21.426 13.0013 21.127 13.0013H20.0436C19.7446 13.0013 19.5019 12.7586 19.5019 12.4596V11.3762C19.5019 11.0771 19.7446 10.8344 20.0436 10.8344H21.127C21.426 10.8344 21.6687 11.0771 21.6687 11.3762V12.4596Z" fill="#868889"/>
</svg>
