<svg width="62" height="55" viewBox="0 0 62 55" fill="none" xmlns="http://www.w3.org/2000/svg">
<path d="M3.84 43.869C4.70667 43.869 5.42667 44.089 6 44.529C6.57333 44.969 6.96 45.5657 7.16 46.319H5.95C5.78333 45.8924 5.51667 45.5557 5.15 45.309C4.79 45.0557 4.34667 44.929 3.82 44.929C3.4 44.929 3.02333 45.0324 2.69 45.239C2.36333 45.4457 2.10333 45.7424 1.91 46.129C1.72333 46.509 1.63 46.9557 1.63 47.469C1.63 47.9757 1.72333 48.4224 1.91 48.809C2.10333 49.189 2.36333 49.4824 2.69 49.689C3.02333 49.8957 3.4 49.999 3.82 49.999C4.34667 49.999 4.79 49.8757 5.15 49.629C5.51667 49.3757 5.78333 49.039 5.95 48.619H7.16C6.96 49.3724 6.57333 49.969 6 50.409C5.42667 50.8424 4.70667 51.059 3.84 51.059C3.17333 51.059 2.58333 50.909 2.07 50.609C1.55667 50.3024 1.16 49.879 0.88 49.339C0.6 48.7924 0.46 48.169 0.46 47.469C0.46 46.769 0.6 46.149 0.88 45.609C1.16 45.0624 1.55667 44.6357 2.07 44.329C2.58333 44.0224 3.17333 43.869 3.84 43.869ZM9.73742 46.569C9.92409 46.209 10.1908 45.9257 10.5374 45.719C10.8841 45.5057 11.2841 45.399 11.7374 45.399V46.639H11.3974C10.8974 46.639 10.4941 46.7624 10.1874 47.009C9.88742 47.249 9.73742 47.649 9.73742 48.209V50.999H8.59742V45.489H9.73742V46.569ZM18.0116 47.979C18.0116 48.1657 17.9982 48.329 17.9716 48.469H13.7316C13.7516 49.0357 13.9082 49.4557 14.2016 49.729C14.4949 50.0024 14.8582 50.139 15.2916 50.139C15.6716 50.139 15.9916 50.0424 16.2516 49.849C16.5182 49.6557 16.6816 49.399 16.7416 49.079H17.9616C17.8882 49.4657 17.7349 49.809 17.5016 50.109C17.2682 50.409 16.9649 50.6457 16.5916 50.819C16.2182 50.9857 15.8016 51.069 15.3416 51.069C14.8082 51.069 14.3349 50.9557 13.9216 50.729C13.5149 50.5024 13.1949 50.1757 12.9616 49.749C12.7282 49.3224 12.6116 48.819 12.6116 48.239C12.6116 47.6657 12.7282 47.1657 12.9616 46.739C13.1949 46.3124 13.5149 45.9857 13.9216 45.759C14.3349 45.5324 14.8082 45.419 15.3416 45.419C15.8816 45.419 16.3516 45.5324 16.7516 45.759C17.1582 45.979 17.4682 46.2857 17.6816 46.679C17.9016 47.0657 18.0116 47.499 18.0116 47.979ZM16.8616 47.949C16.8749 47.589 16.8116 47.289 16.6716 47.049C16.5382 46.8024 16.3516 46.6224 16.1116 46.509C15.8782 46.389 15.6216 46.329 15.3416 46.329C14.8949 46.329 14.5216 46.4657 14.2216 46.739C13.9216 47.0124 13.7582 47.4157 13.7316 47.949H16.8616ZM21.6223 45.419C22.1223 45.419 22.5489 45.5424 22.9023 45.789C23.2556 46.0357 23.5023 46.3624 23.6423 46.769V43.599H24.7923V50.999H23.6423V49.719C23.5023 50.1257 23.2556 50.4524 22.9023 50.699C22.5489 50.9457 22.1223 51.069 21.6223 51.069C21.1423 51.069 20.7123 50.9557 20.3323 50.729C19.9589 50.5024 19.6656 50.1757 19.4523 49.749C19.2389 49.3224 19.1323 48.819 19.1323 48.239C19.1323 47.6657 19.2389 47.1657 19.4523 46.739C19.6656 46.3124 19.9589 45.9857 20.3323 45.759C20.7123 45.5324 21.1423 45.419 21.6223 45.419ZM21.9723 46.419C21.4656 46.419 21.0589 46.5824 20.7523 46.909C20.4523 47.229 20.3023 47.6724 20.3023 48.239C20.3023 48.8057 20.4523 49.2524 20.7523 49.579C21.0589 49.899 21.4656 50.059 21.9723 50.059C22.2923 50.059 22.5789 49.9857 22.8323 49.839C23.0856 49.6857 23.2856 49.4724 23.4323 49.199C23.5789 48.9257 23.6523 48.6057 23.6523 48.239C23.6523 47.879 23.5789 47.5624 23.4323 47.289C23.2856 47.009 23.0856 46.7957 22.8323 46.649C22.5789 46.4957 22.2923 46.419 21.9723 46.419ZM26.3003 43.889C26.3003 43.6957 26.367 43.5357 26.5003 43.409C26.6336 43.2824 26.8103 43.219 27.0303 43.219C27.2503 43.219 27.427 43.2824 27.5603 43.409C27.7003 43.5357 27.7703 43.6957 27.7703 43.889C27.7703 44.0824 27.7003 44.239 27.5603 44.359C27.427 44.479 27.2503 44.539 27.0303 44.539C26.8103 44.539 26.6336 44.479 26.5003 44.359C26.367 44.239 26.3003 44.0824 26.3003 43.889ZM27.6003 45.489V50.999H26.4603V45.489H27.6003ZM32.0498 50.009V50.999H31.3498C30.7632 50.999 30.3165 50.859 30.0098 50.579C29.7098 50.2924 29.5598 49.819 29.5598 49.159V46.459H28.7698V45.489H29.5598V44.119H30.7098V45.489H32.0398V46.459H30.7098V49.179C30.7098 49.4924 30.7665 49.709 30.8798 49.829C30.9998 49.949 31.2065 50.009 31.4998 50.009H32.0498ZM39.2115 43.869C40.0781 43.869 40.7981 44.089 41.3715 44.529C41.9448 44.969 42.3315 45.5657 42.5315 46.319H41.3215C41.1548 45.8924 40.8882 45.5557 40.5215 45.309C40.1615 45.0557 39.7181 44.929 39.1915 44.929C38.7715 44.929 38.3948 45.0324 38.0615 45.239C37.7348 45.4457 37.4748 45.7424 37.2815 46.129C37.0948 46.509 37.0015 46.9557 37.0015 47.469C37.0015 47.9757 37.0948 48.4224 37.2815 48.809C37.4748 49.189 37.7348 49.4824 38.0615 49.689C38.3948 49.8957 38.7715 49.999 39.1915 49.999C39.7181 49.999 40.1615 49.8757 40.5215 49.629C40.8882 49.3757 41.1548 49.039 41.3215 48.619H42.5315C42.3315 49.3724 41.9448 49.969 41.3715 50.409C40.7981 50.8424 40.0781 51.059 39.2115 51.059C38.5448 51.059 37.9548 50.909 37.4415 50.609C36.9281 50.3024 36.5315 49.879 36.2515 49.339C35.9715 48.7924 35.8315 48.169 35.8315 47.469C35.8315 46.769 35.9715 46.149 36.2515 45.609C36.5315 45.0624 36.9281 44.6357 37.4415 44.329C37.9548 44.0224 38.5448 43.869 39.2115 43.869ZM46.1789 45.419C46.6789 45.419 47.1056 45.5424 47.4589 45.789C47.8122 46.0357 48.0622 46.3624 48.2089 46.769V45.489H49.3489V50.999H48.2089V49.719C48.0622 50.1257 47.8122 50.4524 47.4589 50.699C47.1056 50.9457 46.6789 51.069 46.1789 51.069C45.6989 51.069 45.2689 50.9557 44.8889 50.729C44.5156 50.5024 44.2222 50.1757 44.0089 49.749C43.7956 49.3224 43.6889 48.819 43.6889 48.239C43.6889 47.6657 43.7956 47.1657 44.0089 46.739C44.2222 46.3124 44.5156 45.9857 44.8889 45.759C45.2689 45.5324 45.6989 45.419 46.1789 45.419ZM46.5289 46.419C46.0222 46.419 45.6156 46.5824 45.3089 46.909C45.0089 47.229 44.8589 47.6724 44.8589 48.239C44.8589 48.8057 45.0089 49.2524 45.3089 49.579C45.6156 49.899 46.0222 50.059 46.5289 50.059C46.8489 50.059 47.1356 49.9857 47.3889 49.839C47.6422 49.6857 47.8422 49.4724 47.9889 49.199C48.1356 48.9257 48.2089 48.6057 48.2089 48.239C48.2089 47.879 48.1356 47.5624 47.9889 47.289C47.8422 47.009 47.6422 46.7957 47.3889 46.649C47.1356 46.4957 46.8489 46.419 46.5289 46.419ZM52.157 46.569C52.3436 46.209 52.6103 45.9257 52.957 45.719C53.3036 45.5057 53.7036 45.399 54.157 45.399V46.639H53.817C53.317 46.639 52.9136 46.7624 52.607 47.009C52.307 47.249 52.157 47.649 52.157 48.209V50.999H51.017V45.489H52.157V46.569ZM57.5211 45.419C58.0211 45.419 58.4478 45.5424 58.8011 45.789C59.1544 46.0357 59.4011 46.3624 59.5411 46.769V43.599H60.6911V50.999H59.5411V49.719C59.4011 50.1257 59.1544 50.4524 58.8011 50.699C58.4478 50.9457 58.0211 51.069 57.5211 51.069C57.0411 51.069 56.6111 50.9557 56.2311 50.729C55.8578 50.5024 55.5644 50.1757 55.3511 49.749C55.1378 49.3224 55.0311 48.819 55.0311 48.239C55.0311 47.6657 55.1378 47.1657 55.3511 46.739C55.5644 46.3124 55.8578 45.9857 56.2311 45.759C56.6111 45.5324 57.0411 45.419 57.5211 45.419ZM57.8711 46.419C57.3644 46.419 56.9578 46.5824 56.6511 46.909C56.3511 47.229 56.2011 47.6724 56.2011 48.239C56.2011 48.8057 56.3511 49.2524 56.6511 49.579C56.9578 49.899 57.3644 50.059 57.8711 50.059C58.1911 50.059 58.4778 49.9857 58.7311 49.839C58.9844 49.6857 59.1844 49.4724 59.3311 49.199C59.4778 48.9257 59.5511 48.6057 59.5511 48.239C59.5511 47.879 59.4778 47.5624 59.3311 47.289C59.1844 47.009 58.9844 46.7957 58.7311 46.649C58.4778 46.4957 58.1911 46.419 57.8711 46.419Z" fill="#868889"/>
<path d="M42.7704 0H18.2304C16.4506 0 15.0015 1.44915 15.0015 3.22899V17.4364C15.0015 19.2162 16.4506 20.6653 18.2304 20.6653H42.7704C44.5501 20.6653 45.9993 19.2162 45.9993 17.4364V3.22899C45.9994 1.44915 44.5502 0 42.7704 0ZM44.7078 17.4363C44.7078 18.5045 43.8386 19.3737 42.7704 19.3737H18.2304C17.1622 19.3737 16.293 18.5045 16.293 17.4363V3.22899C16.293 2.16083 17.1622 1.29162 18.2304 1.29162H42.7704C43.8385 1.29162 44.7077 2.16083 44.7077 3.22899V17.4363H44.7078Z" fill="#868889"/>
<path d="M45.3542 3.875H15.6479C15.2914 3.875 15.0021 4.16433 15.0021 4.52081V8.39555C15.0021 8.75202 15.2914 9.04136 15.6479 9.04136H45.3542C45.7107 9.04136 46 8.75202 46 8.39555V4.52081C46 4.16433 45.7106 3.875 45.3542 3.875ZM44.7084 7.74974H16.2936V5.16656H44.7084V7.74974H44.7084Z" fill="#868889"/>
<path d="M27.2721 12.916H19.5226C19.1662 12.916 18.8768 13.2054 18.8768 13.5618C18.8768 13.9183 19.1662 14.2076 19.5226 14.2076H27.2721C27.6286 14.2076 27.9179 13.9182 27.9179 13.5618C27.9179 13.2053 27.6286 12.916 27.2721 12.916Z" fill="#868889"/>
<path d="M27.2721 15.499H19.5226C19.1662 15.499 18.8768 15.7884 18.8768 16.1448C18.8768 16.5013 19.1662 16.7906 19.5226 16.7906H27.2721C27.6286 16.7906 27.9179 16.5013 27.9179 16.1448C27.9179 15.7884 27.6286 15.499 27.2721 15.499Z" fill="#868889"/>
<path d="M40.1877 11.6245H38.8961C37.828 11.6245 36.9587 12.4937 36.9587 13.5619V14.8534C36.9587 15.9216 37.828 16.7908 38.8961 16.7908H40.1877C41.2558 16.7908 42.125 15.9216 42.125 14.8534V13.5619C42.125 12.4938 41.2558 11.6245 40.1877 11.6245ZM40.8335 14.8535C40.8335 15.21 40.5441 15.4993 40.1877 15.4993H38.8961C38.5396 15.4993 38.2503 15.21 38.2503 14.8535V13.5619C38.2503 13.2055 38.5396 12.9161 38.8961 12.9161H40.1877C40.5441 12.9161 40.8335 13.2055 40.8335 13.5619V14.8535Z" fill="#868889"/>
</svg>
