<svg width="18" height="18" viewBox="0 0 18 18" fill="none" xmlns="http://www.w3.org/2000/svg">
<path d="M17.2273 4.54447e-08C17.1282 -3.73396e-05 17.0304 0.0229918 16.9418 0.0672931L12.1068 2.48547L6.63943 0.0551803C6.63049 0.0513671 6.62029 0.0506941 6.61072 0.0468809C6.58612 0.0376841 6.56096 0.0300202 6.53542 0.0239265C6.51004 0.017085 6.48424 0.0117389 6.45822 0.00796305C6.40641 0.00370116 6.35433 0.00370116 6.30255 0.00796305C6.27653 0.0117389 6.25074 0.017085 6.22535 0.0239265C6.19982 0.0300202 6.17466 0.0376841 6.15006 0.0468809C6.14049 0.0506941 6.13028 0.0513297 6.12135 0.0551803L0.379009 2.60734C0.148493 2.7097 -3.7378e-05 2.93828 7.05568e-09 3.19047V17.2273C0.000112162 17.4432 0.109314 17.6443 0.290295 17.762C0.471313 17.8798 0.699623 17.8981 0.897053 17.8105L6.38035 15.3732L11.8636 17.8105C11.8732 17.8143 11.8834 17.8105 11.893 17.8162C12.0475 17.8853 12.2248 17.8814 12.376 17.8054C12.3862 17.801 12.3977 17.8054 12.4079 17.7984L17.5122 15.2462C17.7285 15.1381 17.8651 14.917 17.865 14.6752V0.638349C17.8652 0.285958 17.5797 0.000149586 17.2273 4.54447e-08ZM5.74234 14.2604L1.27606 16.2454V3.60522L5.74234 1.62027V14.2604ZM11.4847 16.2454L7.0184 14.2604V1.62027L11.4847 3.60519V16.2454ZM16.589 14.2809L12.7607 16.195V3.58477L16.589 1.67066V14.2809Z" fill="#868889"/>
</svg>
