<svg width="66" height="66" viewBox="0 0 66 66" fill="none" xmlns="http://www.w3.org/2000/svg">
<circle cx="33" cy="33" r="33" fill="#F5F5F5"/>
<path d="M22.9166 41.9998H19.2499C18.7439 41.9998 18.3333 41.5892 18.3333 41.0832C18.3333 40.5772 18.7439 40.1665 19.2499 40.1665H22.9166C23.4226 40.1665 23.8333 40.5772 23.8333 41.0832C23.8333 41.5892 23.4226 41.9998 22.9166 41.9998Z" fill="#868889"/>
<path d="M52.7084 42H50.4167C49.9107 42 49.5 41.5893 49.5 41.0833C49.5 40.5773 49.9107 40.1667 50.4167 40.1667H51.9475L53.1832 33.5813C53.1667 30.2117 50.2884 27.3333 46.75 27.3333H40.7312L37.8144 40.1667H43.0834C43.5894 40.1667 44 40.5773 44 41.0833C44 41.5893 43.5894 42 43.0834 42H36.6667C36.388 42 36.124 41.8735 35.9499 41.6553C35.7757 41.439 35.7097 41.153 35.772 40.8817L39.105 26.215C39.2004 25.7952 39.5707 25.5 39.9997 25.5H46.75C51.2985 25.5 55 29.2015 55 33.75L53.6085 41.252C53.5279 41.6865 53.1502 42 52.7084 42Z" fill="#868889"/>
<path d="M46.7501 45.6667C44.2237 45.6667 42.1667 43.6115 42.1667 41.0833C42.1667 38.5552 44.2237 36.5 46.7501 36.5C49.2764 36.5 51.3334 38.5552 51.3334 41.0833C51.3334 43.6115 49.2764 45.6667 46.7501 45.6667ZM46.7501 38.3333C45.2339 38.3333 44.0001 39.5672 44.0001 41.0833C44.0001 42.5995 45.2339 43.8333 46.7501 43.8333C48.2663 43.8333 49.5001 42.5995 49.5001 41.0833C49.5001 39.5672 48.2663 38.3333 46.7501 38.3333Z" fill="#868889"/>
<path d="M26.5833 45.6667C24.057 45.6667 22 43.6115 22 41.0833C22 38.5552 24.057 36.5 26.5833 36.5C29.1097 36.5 31.1667 38.5552 31.1667 41.0833C31.1667 43.6115 29.1097 45.6667 26.5833 45.6667ZM26.5833 38.3333C25.0672 38.3333 23.8333 39.5672 23.8333 41.0833C23.8333 42.5995 25.0672 43.8333 26.5833 43.8333C28.0995 43.8333 29.3333 42.5995 29.3333 41.0833C29.3333 39.5672 28.0995 38.3333 26.5833 38.3333Z" fill="#868889"/>
<path d="M22.9168 25.4998H15.5834C15.0774 25.4998 14.6667 25.0892 14.6667 24.5832C14.6667 24.0772 15.0774 23.6665 15.5834 23.6665H22.9168C23.4228 23.6665 23.8334 24.0772 23.8334 24.5832C23.8334 25.0892 23.4228 25.4998 22.9168 25.4998Z" fill="#868889"/>
<path d="M22.9166 30.9998H13.7499C13.2439 30.9998 12.8333 30.5892 12.8333 30.0832C12.8333 29.5772 13.2439 29.1665 13.7499 29.1665H22.9166C23.4226 29.1665 23.8333 29.5772 23.8333 30.0832C23.8333 30.5892 23.4226 30.9998 22.9166 30.9998Z" fill="#868889"/>
<path d="M22.9167 36.4998H11.9167C11.4107 36.4998 11 36.0892 11 35.5832C11 35.0772 11.4107 34.6665 11.9167 34.6665H22.9167C23.4227 34.6665 23.8333 35.0772 23.8333 35.5832C23.8333 36.0892 23.4227 36.4998 22.9167 36.4998Z" fill="#868889"/>
<path d="M36.6666 42H30.2499C29.7439 42 29.3333 41.5893 29.3333 41.0833C29.3333 40.5773 29.7439 40.1667 30.2499 40.1667H35.9351L40.1004 21.8333H19.2499C18.7439 21.8333 18.3333 21.4227 18.3333 20.9167C18.3333 20.4107 18.7439 20 19.2499 20H41.2499C41.5286 20 41.7926 20.1265 41.9668 20.3447C42.1409 20.561 42.2069 20.847 42.1446 21.1183L37.5613 41.285C37.4659 41.7048 37.0938 42 36.6666 42Z" fill="#868889"/>
</svg>
