<svg width="36" height="54" viewBox="0 0 36 54" fill="none" xmlns="http://www.w3.org/2000/svg">
<path d="M27.6029 5.19014C27.3939 4.93179 27.1508 4.69589 26.8815 4.48535C26.9175 5.15337 26.8556 5.86509 26.6947 6.61842C26.2553 8.67658 25.2047 10.4255 23.6565 11.6758C22.1096 12.9252 20.1779 13.5857 18.0704 13.5857H14.9972L14.0024 18.2462C13.8071 19.1608 12.9868 19.8245 12.0517 19.8245H10.6664L10.4169 20.9695C10.3529 21.2644 10.4256 21.5725 10.6149 21.8075C10.8041 22.0424 11.0897 22.1791 11.3915 22.1791H14.7782C15.2487 22.1791 15.6554 21.8502 15.7535 21.39L16.9167 15.9402H20.7968C22.6737 15.9402 24.3886 15.3564 25.7564 14.2518C27.1248 13.1468 28.0547 11.5941 28.4458 9.76191C28.8418 7.9093 28.5582 6.37112 27.6029 5.19014Z" fill="#868889"/>
<path d="M13.0273 18.0383L14.1905 12.5885H18.0706C19.9474 12.5885 21.6624 12.0047 23.0301 10.9001C24.3984 9.7951 25.3284 8.24235 25.7196 6.41021C26.1154 4.55755 25.832 3.01942 24.8765 1.83845C23.9595 0.704437 22.3918 0 20.7857 0H12.332C11.863 0 11.4573 0.326805 11.3574 0.785005L7.69067 17.6179C7.6265 17.9128 7.69923 18.2208 7.88863 18.4559C8.07773 18.6908 8.36328 18.8274 8.66518 18.8274H12.0519C12.5225 18.8274 12.9289 18.4985 13.0273 18.0383ZM16.131 3.83442H18.7909C19.4167 3.83442 19.9762 4.09665 20.3261 4.55399C20.6978 5.03979 20.8064 5.71153 20.6242 6.39697C20.6218 6.40568 20.6197 6.41439 20.6175 6.42325C20.2829 7.83548 18.8915 8.98447 17.5161 8.98447H14.9672L16.131 3.83442Z" fill="#868889"/>
<path d="M1.83 47.26V50H0.69V42.94H3.09C3.90333 42.94 4.51333 43.1333 4.92 43.52C5.33333 43.9067 5.54 44.4367 5.54 45.11C5.54 45.7767 5.33 46.3033 4.91 46.69C4.49 47.07 3.88333 47.26 3.09 47.26H1.83ZM2.97 46.33C3.91 46.33 4.38 45.9233 4.38 45.11C4.38 44.71 4.26667 44.4067 4.04 44.2C3.82 43.9867 3.46333 43.88 2.97 43.88H1.83V46.33H2.97ZM9.04961 44.42C9.54961 44.42 9.97628 44.5433 10.3296 44.79C10.6829 45.0367 10.9329 45.3633 11.0796 45.77V44.49H12.2196V50H11.0796V48.72C10.9329 49.1267 10.6829 49.4533 10.3296 49.7C9.97628 49.9467 9.54961 50.07 9.04961 50.07C8.56961 50.07 8.13961 49.9567 7.75961 49.73C7.38628 49.5033 7.09294 49.1767 6.87961 48.75C6.66628 48.3233 6.55961 47.82 6.55961 47.24C6.55961 46.6667 6.66628 46.1667 6.87961 45.74C7.09294 45.3133 7.38628 44.9867 7.75961 44.76C8.13961 44.5333 8.56961 44.42 9.04961 44.42ZM9.39961 45.42C8.89294 45.42 8.48628 45.5833 8.17961 45.91C7.87961 46.23 7.72961 46.6733 7.72961 47.24C7.72961 47.8067 7.87961 48.2533 8.17961 48.58C8.48628 48.9 8.89294 49.06 9.39961 49.06C9.71961 49.06 10.0063 48.9867 10.2596 48.84C10.5129 48.6867 10.7129 48.4733 10.8596 48.2C11.0063 47.9267 11.0796 47.6067 11.0796 47.24C11.0796 46.88 11.0063 46.5633 10.8596 46.29C10.7129 46.01 10.5129 45.7967 10.2596 45.65C10.0063 45.4967 9.71961 45.42 9.39961 45.42ZM14.5377 44.49L16.1877 48.54L17.7177 44.49H18.9877L15.6577 52.62H14.3877L15.5777 49.87L13.2577 44.49H14.5377ZM23.1973 44.42C23.6773 44.42 24.1039 44.5333 24.4773 44.76C24.8573 44.9867 25.1539 45.3133 25.3673 45.74C25.5806 46.1667 25.6873 46.6667 25.6873 47.24C25.6873 47.82 25.5806 48.3233 25.3673 48.75C25.1539 49.1767 24.8573 49.5033 24.4773 49.73C24.1039 49.9567 23.6773 50.07 23.1973 50.07C22.6973 50.07 22.2706 49.9467 21.9173 49.7C21.5639 49.4533 21.3173 49.1267 21.1773 48.72V52.62H20.0373V44.49H21.1773V45.77C21.3173 45.3633 21.5639 45.0367 21.9173 44.79C22.2706 44.5433 22.6973 44.42 23.1973 44.42ZM22.8473 45.42C22.5273 45.42 22.2406 45.4967 21.9873 45.65C21.7339 45.7967 21.5339 46.01 21.3873 46.29C21.2406 46.5633 21.1673 46.88 21.1673 47.24C21.1673 47.6067 21.2406 47.9267 21.3873 48.2C21.5339 48.4733 21.7339 48.6867 21.9873 48.84C22.2406 48.9867 22.5273 49.06 22.8473 49.06C23.3539 49.06 23.7606 48.9 24.0673 48.58C24.3739 48.2533 24.5273 47.8067 24.5273 47.24C24.5273 46.68 24.3739 46.2367 24.0673 45.91C23.7606 45.5833 23.3539 45.42 22.8473 45.42ZM29.2953 44.42C29.7953 44.42 30.222 44.5433 30.5753 44.79C30.9286 45.0367 31.1786 45.3633 31.3253 45.77V44.49H32.4653V50H31.3253V48.72C31.1786 49.1267 30.9286 49.4533 30.5753 49.7C30.222 49.9467 29.7953 50.07 29.2953 50.07C28.8153 50.07 28.3853 49.9567 28.0053 49.73C27.632 49.5033 27.3386 49.1767 27.1253 48.75C26.912 48.3233 26.8053 47.82 26.8053 47.24C26.8053 46.6667 26.912 46.1667 27.1253 45.74C27.3386 45.3133 27.632 44.9867 28.0053 44.76C28.3853 44.5333 28.8153 44.42 29.2953 44.42ZM29.6453 45.42C29.1386 45.42 28.732 45.5833 28.4253 45.91C28.1253 46.23 27.9753 46.6733 27.9753 47.24C27.9753 47.8067 28.1253 48.2533 28.4253 48.58C28.732 48.9 29.1386 49.06 29.6453 49.06C29.9653 49.06 30.252 48.9867 30.5053 48.84C30.7586 48.6867 30.9586 48.4733 31.1053 48.2C31.252 47.9267 31.3253 47.6067 31.3253 47.24C31.3253 46.88 31.252 46.5633 31.1053 46.29C30.9586 46.01 30.7586 45.7967 30.5053 45.65C30.252 45.4967 29.9653 45.42 29.6453 45.42ZM35.2734 42.6V50H34.1334V42.6H35.2734Z" fill="#868889"/>
</svg>
