<svg width="39" height="14" viewBox="0 0 39 14" fill="none" xmlns="http://www.w3.org/2000/svg">
<path d="M13.2431 0L11.1352 13.1172H14.5044L16.611 0H13.2431ZM23.4058 5.3432C22.2284 4.76178 21.5067 4.36936 21.5067 3.7747C21.521 3.23402 22.117 2.68009 23.4478 2.68009C24.5424 2.6526 25.347 2.90984 25.9573 3.16578L26.2631 3.30225L26.7212 0.557812C26.0557 0.300571 25.0005 0.0171296 23.6972 0.0171296C20.37 0.0171296 18.0272 1.74699 18.0127 4.22109C17.9852 6.04683 19.69 7.05996 20.9658 7.66772C22.2692 8.29118 22.7128 8.69539 22.7128 9.24932C22.6984 10.0998 21.659 10.4922 20.689 10.4922C19.3451 10.4922 18.6232 10.2901 17.5273 9.8162L17.0836 9.61409L16.6124 12.4662C17.4039 12.818 18.8594 13.1277 20.3702 13.1435C23.906 13.1435 26.2068 11.4398 26.2358 8.80307C26.2473 7.35664 25.3483 6.24879 23.4058 5.3432ZM35.3587 0.040594H32.752C31.9488 0.040594 31.3384 0.271637 30.9906 1.0959L25.986 13.1172H29.5219L30.4957 10.5145H34.4516L34.9569 13.1277H38.0755L35.3587 0.040594ZM31.4763 7.88797C31.5445 7.89459 32.8335 3.63938 32.8335 3.63938L33.8599 7.88797C33.8599 7.88797 32.1418 7.88797 31.4763 7.88797ZM8.31997 0L5.01901 8.9119L4.65942 7.15439C4.04907 5.12655 2.13552 2.92294 0 1.82833L3.02269 13.1041H6.58751L11.8848 0.00143873H8.31997V0Z" fill="#2394BC"/>
</svg>
