<svg width="18" height="13" viewBox="0 0 18 13" fill="none" xmlns="http://www.w3.org/2000/svg">
<path d="M10.2307 8.52541C10.7161 8.52541 11.1096 8.13191 11.1096 7.64649C11.1096 7.16108 10.7161 6.76758 10.2307 6.76758C9.74531 6.76758 9.35181 7.16108 9.35181 7.64649C9.35181 8.13191 9.74531 8.52541 10.2307 8.52541Z" fill="#868889"/>
<path d="M12.6917 8.52541C13.1771 8.52541 13.5706 8.13191 13.5706 7.64649C13.5706 7.16108 13.1771 6.76758 12.6917 6.76758C12.2062 6.76758 11.8127 7.16108 11.8127 7.64649C11.8127 8.13191 12.2062 8.52541 12.6917 8.52541Z" fill="#868889"/>
<path d="M7.76979 8.52541C8.2552 8.52541 8.6487 8.13191 8.6487 7.64649C8.6487 7.16108 8.2552 6.76758 7.76979 6.76758C7.28437 6.76758 6.89087 7.16108 6.89087 7.64649C6.89087 8.13191 7.28437 8.52541 7.76979 8.52541Z" fill="#868889"/>
<path d="M5.30885 8.52541C5.79426 8.52541 6.18776 8.13191 6.18776 7.64649C6.18776 7.16108 5.79426 6.76758 5.30885 6.76758C4.82344 6.76758 4.42993 7.16108 4.42993 7.64649C4.42993 8.13191 4.82344 8.52541 5.30885 8.52541Z" fill="#868889"/>
<path d="M17.2971 0H0.703133C0.314793 0 0 0.314793 0 0.703133V11.9533C0 12.3416 0.314793 12.6564 0.703133 12.6564H17.2971C17.6854 12.6564 18.0002 12.3416 18.0002 11.9533V0.703133C18.0002 0.314793 17.6854 0 17.2971 0ZM16.5939 11.2501H1.40627V1.40627H16.5939V11.2501Z" fill="#868889"/>
<path d="M5.3086 4.834H12.6915C13.0798 4.834 13.3946 4.51921 13.3946 4.13087C13.3946 3.74253 13.0798 3.42773 12.6915 3.42773H5.3086C4.92026 3.42773 4.60547 3.74253 4.60547 4.13087C4.60547 4.51921 4.92026 4.834 5.3086 4.834Z" fill="#868889"/>
</svg>
